<svg id="sc-logo" viewBox="0 0 512 512" style="fill-rule:evenodd;clip-rule:evenodd;stroke-linecap:round;stroke-linejoin:round;stroke-miterlimit:1.5;" version="1.1" xmlns="http://www.w3.org/2000/svg">
  <style>@media (prefers-color-scheme: dark) {path{fill:white; stroke:white;}}</style>
  <path d="M502.05,256L379.025,470.171L132.975,470.171L9.95,256L132.975,41.829L379.025,41.829L502.05,256ZM321.59,346.744C305.504,361.466 284.932,368.827 259.875,368.827C228.872,368.827 204.498,358.883 186.753,338.994C169.009,319.007 160.137,291.61 160.137,256.804C160.137,219.171 170.228,190.166 190.41,169.789C207.959,152.045 230.285,143.173 257.389,143.173C293.658,143.173 320.177,155.067 336.946,178.856C346.208,192.213 351.181,205.619 351.863,219.073L306.82,219.073C303.895,208.739 300.141,200.939 295.559,195.674C287.369,186.315 275.231,181.635 259.144,181.635C242.765,181.635 229.847,188.24 220.39,201.451C210.932,214.662 206.204,233.357 206.204,257.536C206.204,281.715 211.201,299.824 221.194,311.865C231.187,323.906 243.886,329.926 259.29,329.926C275.085,329.926 287.126,324.759 295.413,314.425C299.995,308.867 303.797,300.531 306.82,289.417L351.424,289.417C347.524,312.913 337.58,332.023 321.59,346.744Z" style="stroke:rgb(235,235,235);stroke-width:1px;"/>
</svg>
